<?xml version="1.0" encoding="UTF-8"?>
<svg version="1.1" xmlns="http://www.w3.org/2000/svg" width="370" height="370">
<path d="M0 0 C1.32 0 2.64 0 4 0 C3.6401788 5.60824764 2.86431258 10.91134753 1.45703125 16.359375 C1.18479736 17.42124023 0.91256348 18.48310547 0.63208008 19.57714844 C0.42349365 20.37668945 0.21490723 21.17623047 0 22 C1.1960083 21.99476318 2.3920166 21.98952637 3.62426758 21.98413086 C8.05785373 21.96604288 12.49143661 21.95455405 16.92504883 21.94506836 C18.84465076 21.94003685 20.76424886 21.93321102 22.68383789 21.92456055 C25.44157864 21.91244331 28.19926876 21.90675989 30.95703125 21.90234375 C31.81649857 21.89718246 32.67596588 21.89202118 33.56147766 21.88670349 C34.36208115 21.88662796 35.16268463 21.88655243 35.98754883 21.88647461 C36.6914827 21.884254 37.39541656 21.88203339 38.12068176 21.87974548 C40 22 40 22 43 23 C41.64625502 30.71151157 38.87419178 37.14978356 35.5 44.1875 C34.92887257 45.39609961 34.35858588 46.60509681 33.7890625 47.81445312 C32.21240976 51.15630643 30.62430564 54.49260479 29.03417969 57.82806396 C27.21461956 61.64941945 25.404672 65.47532667 23.59375 69.30078125 C21.28448993 74.17784601 18.97451671 79.05456475 16.66064453 83.92944336 C12.19025787 93.35062714 7.75423753 102.78601942 3.375 112.25 C-2.09631304 124.07383565 -7.60824514 135.87806657 -13.17773438 147.65600586 C-13.51131958 148.36148056 -13.84490479 149.06695526 -14.18859863 149.79380798 C-14.85084364 151.19430079 -15.51319594 152.59474286 -16.17565918 153.99513245 C-18.23107483 158.34780592 -20.25024155 162.71522652 -22.25 167.09375 C-22.74097168 168.15553467 -23.23194336 169.21731934 -23.73779297 170.3112793 C-24.62905388 172.23952118 -25.50926419 174.17293068 -26.37548828 176.11254883 C-29.22669881 182.22919356 -32.01057613 185.88224976 -38.08984375 189.109375 C-38.69957031 189.32078125 -39.30929687 189.5321875 -39.9375 189.75 C-40.54464844 189.97171875 -41.15179688 190.1934375 -41.77734375 190.421875 C-47.55092518 191.92361498 -53.31559175 192.16193341 -59.25 192.125 C-60.39734619 192.12209961 -60.39734619 192.12209961 -61.56787109 192.11914062 C-70.39278929 192.05473822 -79.19390441 191.5467199 -88 191 C-89.27339482 193.51956743 -90.54376642 196.04058649 -91.8125 198.5625 C-92.16892578 199.26697266 -92.52535156 199.97144531 -92.89257812 200.69726562 C-95.09092409 205.07378925 -97.11663926 209.47874598 -99 214 C-100.32 214 -101.64 214 -103 214 C-102.88205295 212.39529935 -102.75509534 210.79126148 -102.625 209.1875 C-102.55539063 208.29417969 -102.48578125 207.40085937 -102.4140625 206.48046875 C-101.83481709 201.61152855 -100.91426662 196.81574632 -100 192 C-101.23133667 192.02356567 -101.23133667 192.02356567 -102.48754883 192.04760742 C-105.58697087 192.09929717 -108.68617038 192.13661908 -111.78588867 192.16479492 C-113.76561236 192.1869747 -115.74513664 192.22512997 -117.72460938 192.26367188 C-127.42423571 192.33733992 -137.60360304 192.14471868 -145.1875 185.3125 C-150.71684806 179.86115214 -153.67681059 173.54241524 -156.81738281 166.58105469 C-158.14616491 163.68099599 -159.53279578 160.81318029 -160.9296875 157.9453125 C-166.5434481 146.41881335 -172.01753719 134.83516137 -177.375 123.1875 C-184.23548149 108.28318348 -191.58284701 93.63321528 -199 79 C-203.33026572 87.54693001 -207.51336755 96.13186361 -211.4375 104.875 C-211.88287109 105.86113281 -212.32824219 106.84726563 -212.78710938 107.86328125 C-213.86057823 110.24107248 -214.93153477 112.61995733 -216 115 C-215.2886792 114.98428955 -214.5773584 114.9685791 -213.84448242 114.95239258 C-210.62556896 114.89008085 -207.40678232 114.85102133 -204.1875 114.8125 C-203.06794922 114.78736328 -201.94839844 114.76222656 -200.79492188 114.73632812 C-199.72177734 114.72666016 -198.64863281 114.71699219 -197.54296875 114.70703125 C-196.55321045 114.6913208 -195.56345215 114.67561035 -194.54370117 114.65942383 C-191.49904492 115.06707288 -190.9596881 115.72482653 -189 118 C-187.59145221 120.56222929 -186.26763747 123.11302776 -184.98828125 125.73828125 C-184.61519333 126.49666794 -184.24210541 127.25505463 -183.85771179 128.03642273 C-183.07204121 129.63946583 -182.28971103 131.24414984 -181.51049805 132.8503418 C-180.31885252 135.29944412 -179.10831317 137.73856891 -177.89648438 140.17773438 C-177.13423977 141.7390093 -176.37313404 143.30084086 -175.61328125 144.86328125 C-175.25083817 145.58848465 -174.88839508 146.31368805 -174.51496887 147.06086731 C-172.53564511 151.19460342 -171.47017741 154.30696519 -172 159 C-173.9435406 160.9435406 -177.52955829 160.41757016 -180.1875 160.5625 C-180.94361572 160.6042334 -181.69973145 160.6459668 -182.47875977 160.68896484 C-200.99115633 161.60718271 -219.49907087 160.83349501 -238 160 C-238.66 162.97 -239.32 165.94 -240 169 C-243.3 176.26 -246.6 183.52 -250 191 C-267.82 191 -285.64 191 -304 191 C-303.20178566 185.41249964 -302.54772989 182.41798696 -300.2890625 177.5390625 C-300.009487 176.92860077 -299.7299115 176.31813904 -299.44186401 175.68917847 C-298.51155249 173.66367527 -297.56833079 171.64446858 -296.625 169.625 C-295.95558738 168.17419368 -295.28698789 166.72301194 -294.61914062 165.27148438 C-292.80542957 161.33598945 -290.98017933 157.4059536 -289.15197754 153.47717285 C-287.1982678 149.27598266 -285.2519476 145.07136994 -283.3046875 140.8671875 C-280.89133572 135.65788504 -278.47681199 130.44913697 -276.05786133 125.24243164 C-271.08786046 114.54017209 -266.17527766 103.81384843 -261.3125 93.0625 C-256.12743477 81.60513889 -250.85135285 70.19316611 -245.5 58.8125 C-245.00809677 57.76450729 -245.00809677 57.76450729 -244.5062561 56.69534302 C-242.65610371 52.75661623 -240.78821666 48.82703846 -238.90429688 44.90435791 C-237.98053755 42.95901404 -237.08327727 41.00279763 -236.1875 39.04443359 C-235.59437113 37.78323635 -235.00064542 36.52231957 -234.40625 35.26171875 C-233.89384766 34.15143311 -233.38144531 33.04114746 -232.85351562 31.8972168 C-229.55069979 26.73460937 -224.78795417 24.53557968 -219 23 C-213.98655529 22.15092395 -209.09431168 21.84688786 -204.02026367 21.83886719 C-203.25501877 21.83390228 -202.48977386 21.82893738 -201.70133972 21.82382202 C-199.19020665 21.80931462 -196.6791367 21.80241803 -194.16796875 21.796875 C-192.87241279 21.79263393 -192.87241279 21.79263393 -191.55068398 21.78830719 C-186.9809705 21.77336181 -182.41128822 21.76410267 -177.84155273 21.75976562 C-173.14448904 21.75428421 -168.44771568 21.73024976 -163.75074291 21.70179367 C-160.11740811 21.68308647 -156.48414219 21.67795743 -152.85076332 21.67642975 C-151.12016524 21.67342152 -149.38956783 21.66545557 -147.65901756 21.65224457 C-135.76308023 21.56790233 -123.39336247 21.59038439 -114 30 C-108.12791314 37.81471632 -104.35422936 47.38088719 -100.22729492 56.19216919 C-98.55345175 59.76590095 -96.86831122 63.33426601 -95.18371582 66.90293884 C-94.33313808 68.70497089 -93.48312031 70.50726736 -92.63366699 72.30982971 C-88.96864539 80.08333625 -85.24555458 87.82755344 -81.5 95.5625 C-80.94489746 96.71492188 -80.38979492 97.86734375 -79.81787109 99.0546875 C-77.14833049 104.59269125 -74.44995749 110.11316345 -71.6953125 115.609375 C-71.17646484 116.65794678 -70.65761719 117.70651855 -70.12304688 118.78686523 C-69.16078398 120.73036656 -68.1864968 122.66798615 -67.19726562 124.59790039 C-64.69804475 129.6795544 -62.71177897 134.26655583 -64 140 C-65.40550617 143.80822508 -67.15616383 147.38707777 -69 151 C-69.47695312 151.96550781 -69.95390625 152.93101562 -70.4453125 153.92578125 C-71.61632761 156.29123177 -72.80129368 158.64849526 -74 161 C-69.0971203 152.45328826 -64.22825177 143.88748113 -59.375 135.3125 C-58.83721924 134.36366943 -58.29943848 133.41483887 -57.74536133 132.43725586 C-54.1005786 125.99188025 -50.52769541 119.51017276 -47 113 C-49.31 113 -51.62 113 -54 113 C-53.70428202 105.29285025 -50.63932432 99.81912633 -47 93.125 C-45.63388884 90.56152053 -44.27942141 87.99195756 -42.92578125 85.421875 C-42.55109207 84.71255829 -42.17640289 84.00324158 -41.7903595 83.27243042 C-35.51383868 71.33885247 -29.58494119 59.22465776 -23.58520508 47.15045166 C-17.91462199 35.74228069 -12.22774023 24.35393629 -6.19877625 13.12973022 C-3.90078162 8.82776687 -1.85576358 4.51145718 0 0 Z M-76 163 C-75 165 -75 165 -75 165 Z M-77 165 C-76 167 -76 167 -76 167 Z M-78 167 C-77 169 -77 169 -77 169 Z " fill="#FBFBFB" transform="translate(317,83)"/>
</svg>
