<?xml version="1.0" encoding="UTF-8"?><svg xmlns="http://www.w3.org/2000/svg" version="1.1" width="470" height="100" viewBox="13 302 470 100">
<path d="M0 0 C0.81561905 -0.00511093 1.6312381 -0.01022186 2.47157288 -0.01548767 C5.14990718 -0.02931162 7.82798206 -0.02843226 10.50634766 -0.02612305 C12.3805043 -0.03001409 14.25466006 -0.03434961 16.1288147 -0.03910828 C20.05091209 -0.04655514 23.97291945 -0.04629046 27.89501953 -0.04101562 C32.90383732 -0.03522485 37.91228487 -0.05215003 42.92104149 -0.0753603 C46.79025401 -0.09014233 50.65937829 -0.09096323 54.52861404 -0.08785057 C56.3744645 -0.08836159 58.22032017 -0.09355795 60.06614304 -0.10366249 C62.65501222 -0.11609585 65.24317213 -0.10919426 67.83203125 -0.09765625 C68.58348923 -0.10529999 69.3349472 -0.11294373 70.10917664 -0.12081909 C78.50832948 -0.03870389 85.60326163 2.3665728 91.72753906 8.16381836 C95.04666746 12.01785867 97.09871244 16.37653754 99.23291016 20.9621582 C99.74289551 22.01830322 100.25288086 23.07444824 100.77832031 24.16259766 C104.94162182 32.83434155 108.95409995 41.58019421 112.96142578 50.32495117 C116.59507615 58.20963009 120.35866576 66.02308807 124.18994141 73.8137207 C124.68574707 74.82253799 125.18155273 75.83135529 125.69238281 76.8707428 C128.18846942 81.94492467 130.69296477 87.01478196 133.20703125 92.08007812 C134.13637304 93.96387824 135.06557827 95.84774573 135.99462891 97.73168945 C136.42427444 98.59102081 136.85391998 99.45035217 137.29658508 100.33572388 C143.13648675 112.21195283 143.13648675 112.21195283 141.60522461 117.55566406 C141.04536865 118.68883057 140.4855127 119.82199707 139.90869141 120.98950195 C139.60199524 121.62629883 139.29529907 122.2630957 138.97930908 122.91918945 C137.95856861 125.02712074 136.90834576 127.11888877 135.85791016 129.2121582 C135.13617645 130.69030914 134.41673885 132.16958314 133.69946289 133.64990234 C132.15696611 136.82775038 130.60367914 140.00000857 129.04345703 143.16918945 C125.07651379 151.24892521 121.23719337 159.38984119 117.38339233 167.5239563 C116.11934857 170.18805064 114.85032923 172.84971931 113.57983398 175.51074219 C112.79882326 177.14949312 112.01781716 178.78824627 111.23681641 180.42700195 C110.87710754 181.17860596 110.51739868 181.93020996 110.14678955 182.70458984 C108.79944248 185.53694502 107.53836663 188.29578878 106.54541016 191.2746582 C105.88541016 191.2746582 105.22541016 191.2746582 104.54541016 191.2746582 C105.20300764 186.00695623 106.2780514 180.97332648 107.60791016 175.8371582 C107.79417969 175.10561523 107.98044922 174.37407227 108.17236328 173.62036133 C108.62678595 171.83762623 109.08563482 170.05602033 109.54541016 168.2746582 C108.56781738 168.29560547 107.59022461 168.31655273 106.58300781 168.33813477 C102.91161085 168.41123541 99.24027643 168.45670862 95.56835938 168.49438477 C93.9875197 168.51434242 92.40675233 168.5415188 90.82617188 168.57641602 C79.95660796 168.81017008 70.4204542 168.97410199 62.06201172 161.16503906 C58.38336548 157.3696065 56.16427022 153.36607308 53.94384766 148.60668945 C53.54524033 147.78279724 53.146633 146.95890503 52.73594666 146.11004639 C51.44983265 143.44233072 50.18497236 140.76514762 48.92041016 138.0871582 C48.0259703 136.22129106 47.13037044 134.35597956 46.23364258 132.49121094 C40.83977688 121.24422821 35.57278244 109.93922252 30.37402344 98.60083008 C25.87045202 88.83460934 21.10666409 79.20476676 16.29541016 69.5871582 C15.91430084 68.82412384 15.53319153 68.06108948 15.14053345 67.27493286 C14.06477141 65.12367139 12.98564715 62.97414236 11.90478516 60.82543945 C11.57941269 60.17589294 11.25404022 59.52634644 10.91880798 58.8571167 C9.52403416 55.86792014 9.52403416 55.86792014 7.54541016 53.2746582 C7.10672607 54.24290527 6.66804199 55.21115234 6.21606445 56.20874023 C4.57904732 59.82108626 2.94050444 63.43273852 1.30151367 67.04418945 C0.59406965 68.60357257 -0.11296748 70.16314035 -0.81958008 71.72290039 C-1.83875809 73.97241803 -2.85942601 76.22125459 -3.88037109 78.4699707 C-4.19299393 79.16083771 -4.50561676 79.85170471 -4.82771301 80.56350708 C-5.1277977 81.22373871 -5.42788239 81.88397034 -5.73706055 82.56420898 C-5.9968721 83.13712677 -6.25668365 83.71004456 -6.52436829 84.30032349 C-7.78743128 86.9810925 -9.12930869 89.6240959 -10.45458984 92.2746582 C2.41541016 92.7696582 2.41541016 92.7696582 15.54541016 93.2746582 C17.44890094 97.20270075 19.35154408 101.13113334 21.25219727 105.06054688 C21.89658538 106.39215398 22.54142833 107.72354109 23.18676758 109.0546875 C25.31977926 113.45495635 27.44077825 117.86074159 29.54541016 122.2746582 C30.32392334 123.90733643 30.32392334 123.90733643 31.11816406 125.57299805 C31.80338135 127.03987061 31.80338135 127.03987061 32.50244141 128.53637695 C32.90052002 129.38546631 33.29859863 130.23455566 33.70874023 131.109375 C34.54541016 133.2746582 34.54541016 133.2746582 34.54541016 136.2746582 C27.37477532 137.39603995 20.32426179 137.4027913 13.07666016 137.37231445 C11.80060913 137.37089951 10.52455811 137.36948456 9.20983887 137.36802673 C5.84302859 137.36339831 2.47628809 137.35443791 -0.89050293 137.34332275 C-4.33633832 137.33303151 -7.78218096 137.3285127 -11.22802734 137.32348633 C-17.97023387 137.31249146 -24.71240784 137.29577901 -31.45458984 137.2746582 C-32.44458984 140.2446582 -33.43458984 143.2146582 -34.45458984 146.2746582 C-37.75458984 153.5346582 -41.05458984 160.7946582 -44.45458984 168.2746582 C-61.61458984 168.2746582 -78.77458984 168.2746582 -96.45458984 168.2746582 C-95.55639901 163.78370401 -94.39032316 160.61612442 -92.48974609 156.5012207 C-92.18519501 155.83797791 -91.88064392 155.17473511 -91.56686401 154.49139404 C-90.55531153 152.29178804 -89.53619803 150.09577248 -88.51708984 147.8996582 C-87.79793997 146.33949583 -87.07928111 144.77910704 -86.36108398 143.21850586 C-84.45300561 139.07585657 -82.53849025 134.93621575 -80.62219238 130.79736328 C-78.71728962 126.68165805 -76.81646974 122.56406876 -74.91552734 118.4465332 C-74.16195563 116.8142862 -73.4083749 115.18204337 -72.65478516 113.54980469 C-72.28196411 112.74227753 -71.90914307 111.93475037 -71.52502441 111.10275269 C-70.38596902 108.63640504 -69.24601822 106.1704727 -68.10595703 103.70458984 C-63.59560465 93.94443843 -59.12397238 84.16770577 -54.68902588 74.37307739 C-47.87629725 59.32847081 -40.96408915 44.33307938 -33.88165283 29.41331482 C-32.23016976 25.93096426 -30.61051998 22.43624435 -29.01708984 18.92700195 C-22.82161681 5.51026714 -22.82161681 5.51026714 -15.45458984 2.2746582 C-10.15861453 0.49817201 -5.56459946 -0.01824714 0 0 Z " fill="#ffffff" transform="translate(167.45458984375,107.725341796875)"/>
<path d="M0 0 C0.66 0 1.32 0 2 0 C1 7 1 7 -3 22 C18.78 22.495 18.78 22.495 41 23 C40.11082461 27.44587694 38.79792326 30.92437636 36.859375 34.94140625 C36.38210968 35.94795509 36.38210968 35.94795509 35.89520264 36.97483826 C34.85173172 39.17310781 33.80077399 41.36771333 32.75 43.5625 C31.64609404 45.88447507 30.54421845 48.20740691 29.44238281 50.53036499 C28.69758445 52.1001899 27.95213824 53.6697076 27.20605469 55.23892212 C23.92652436 62.13908794 20.70510417 69.06492282 17.5 76 C12.36977207 87.08158073 7.18059031 98.1344473 1.97225952 109.17947388 C-2.07626622 117.76589964 -6.10421135 126.36095592 -10.08764648 134.9777832 C-12.7138884 140.65708646 -15.35632857 146.32879476 -18 152 C-18.57490219 153.23794068 -19.14977127 154.47589674 -19.72460938 155.71386719 C-21.44780806 159.42029375 -23.19184402 163.11659745 -24.9375 166.8125 C-25.45723389 167.93390381 -25.97696777 169.05530762 -26.51245117 170.21069336 C-33.56850854 185.04035397 -33.56850854 185.04035397 -41.125 188.375 C-41.76695312 188.67148437 -42.40890625 188.96796875 -43.0703125 189.2734375 C-46.46011766 190.5497609 -49.5040801 191.12498709 -53.12597656 191.11352539 C-53.92650452 191.11344986 -54.72703247 191.11337433 -55.55181885 191.11329651 C-56.83327789 191.10555458 -56.83327789 191.10555458 -58.140625 191.09765625 C-59.02280701 191.0962413 -59.90498901 191.09482635 -60.81390381 191.09336853 C-63.62597065 191.08778001 -66.4379573 191.07522961 -69.25 191.0625 C-71.15885302 191.05748352 -73.06770728 191.05292087 -74.9765625 191.04882812 C-79.65107247 191.03781434 -84.32552265 191.02055758 -89 191 C-88.41923659 187.15094339 -87.30226143 184.4301713 -85.296875 181.10546875 C-84.73532715 180.16227783 -84.1737793 179.21908691 -83.59521484 178.24731445 C-82.98629395 177.23757568 -82.37737305 176.22783691 -81.75 175.1875 C-76.78041889 166.81798105 -71.96898924 158.3940691 -67.375 149.8125 C-62.64841216 140.99132175 -57.78459393 132.26390576 -52.78076172 123.59692383 C-52.31299316 122.78634521 -51.84522461 121.9757666 -51.36328125 121.140625 C-50.95376221 120.43454102 -50.54424316 119.72845703 -50.12231445 119.00097656 C-49.01621526 117.02891023 -47.99393162 115.03057012 -47 113 C-49.64 112.67 -52.28 112.34 -55 112 C-54.41162514 107.16120511 -52.21302967 103.32831375 -49.90625 99.125 C-45.31327478 90.57574995 -40.9199573 81.93611201 -36.59375 73.25 C-35.93166301 71.92235212 -35.26955344 70.59471549 -34.60742188 69.26708984 C-32.56956971 65.17907687 -30.53454125 61.08966155 -28.5 57 C-25.80465584 51.58204872 -23.10743769 46.16504058 -20.40625 40.75 C-20.08235291 40.10035278 -19.75845581 39.45070557 -19.42474365 38.78137207 C-15.0724812 30.05822787 -10.6518525 21.37621501 -6.02990723 12.79199219 C-3.78550854 8.60411698 -1.81083897 4.3940737 0 0 Z " fill="#ffffff" transform="translate(376,85)"/>
<path d="M0 0 C7 0 7 0 9.08203125 1.6953125 C9.65308594 2.49710937 10.22414063 3.29890625 10.8125 4.125 C11.48539062 5.04539062 12.15828125 5.96578125 12.8515625 6.9140625 C13.91503906 8.44160156 13.91503906 8.44160156 15 10 C16.15490106 11.59939907 17.30980642 13.19879504 18.46484375 14.7980957 C19.72215239 16.54823519 20.96773327 18.30622366 22.2109375 20.06640625 C25.37913686 24.54681618 28.59561169 28.99198026 31.8125 33.4375 C32.88166541 34.91525246 33.95068171 36.39311281 35.01953125 37.87109375 C35.47432861 38.49943115 35.92912598 39.12776855 36.39770508 39.77514648 C38.60753585 42.84358894 40.80212855 45.92297997 43 49 C43.33 32.83 43.66 16.66 44 0 C46.31 0 48.62 0 51 0 C51 20.79 51 41.58 51 63 C44 63 44 63 42.21826172 61.63330078 C41.79303223 60.99376465 41.36780273 60.35422852 40.9296875 59.6953125 C40.18392456 58.61588379 40.18392456 58.61588379 39.4230957 57.51464844 C38.91222412 56.72606445 38.40135254 55.93748047 37.875 55.125 C36.74154032 53.46569829 35.60740648 51.80685691 34.47265625 50.1484375 C33.89918457 49.2934668 33.32571289 48.43849609 32.73486328 47.55761719 C30.01955229 43.55457779 27.16368578 39.65680032 24.3125 35.75 C18.83783493 28.19303617 13.42405862 20.59368207 8 13 C7.67 29.5 7.34 46 7 63 C4.69 63 2.38 63 0 63 C0 42.21 0 21.42 0 0 Z " fill="#ffffff" transform="translate(418,321)"/>
<path d="M0 0 C2.64 0 5.28 0 8 0 C13.70265392 11.88806699 19.09437892 23.89072768 24.29394531 36.00708008 C25.51936738 38.85755071 26.75571205 41.70313768 27.9921875 44.54882812 C28.7767088 46.37210892 29.560588 48.19566617 30.34375 50.01953125 C30.71238159 50.86425491 31.08101318 51.70897858 31.46081543 52.57929993 C31.79536743 53.36499863 32.12991943 54.15069733 32.47460938 54.96020508 C32.7702478 55.64617264 33.06588623 56.3321402 33.3704834 57.03889465 C34 59 34 59 34 63 C31.69 63 29.38 63 27 63 C25.9955866 60.7101766 24.99632388 58.4183401 24 56.125 C23.71382812 55.47402344 23.42765625 54.82304687 23.1328125 54.15234375 C21 49.2265625 21 49.2265625 21 47 C9.78 47 -1.44 47 -13 47 C-13.495 49.475 -13.495 49.475 -14 52 C-14.80594499 53.95804995 -15.66201697 55.8960874 -16.5625 57.8125 C-17.24505859 59.27623047 -17.24505859 59.27623047 -17.94140625 60.76953125 C-18.29074219 61.50558594 -18.64007813 62.24164063 -19 63 C-21.31 63 -23.62 63 -26 63 C-25.35465534 59.00419884 -24.10825596 55.63357362 -22.48046875 51.93359375 C-21.95799561 50.73814941 -21.43552246 49.54270508 -20.8972168 48.31103516 C-20.32733288 47.0198472 -19.75742678 45.72866904 -19.1875 44.4375 C-18.30904277 42.43247049 -17.43237534 40.4266642 -16.55574036 38.4208374 C-15.95262611 37.04123235 -15.3489309 35.66188114 -14.74467468 34.28277588 C-11.51775197 26.91447363 -8.34995551 19.52114523 -5.1875 12.125 C-4.6611023 10.89507914 -4.13465512 9.66517945 -3.6081543 8.43530273 C-2.40485011 5.62378524 -1.20211079 2.8120279 0 0 Z M4 9 C-5.19597678 24.39289814 -5.19597678 24.39289814 -10 41 C-0.76 41 8.48 41 18 41 C15.48091576 33.41857879 15.48091576 33.41857879 12.51953125 26.08984375 C12.07802734 25.08115234 11.63652344 24.07246094 11.18164062 23.03320312 C10.72982422 22.01162109 10.27800781 20.99003906 9.8125 19.9375 C9.34908203 18.88111328 8.88566406 17.82472656 8.40820312 16.73632812 C7.2756523 14.15598036 6.13952397 11.57727399 5 9 C4.67 9 4.34 9 4 9 Z " fill="#ffffff" transform="translate(54,321)"/>
<path d="M0 0 C2.31 0 4.62 0 7 0 C7.33 10.23 7.66 20.46 8 31 C10.145 28.7621875 12.29 26.524375 14.5 24.21875 C16.59685256 22.05946476 18.70062006 19.90714593 20.80517578 17.75537109 C22.2614429 16.25893109 23.71044217 14.7553818 25.15185547 13.24462891 C27.22823778 11.07093853 29.32963561 8.92437093 31.4375 6.78125 C32.39269531 5.76411926 32.39269531 5.76411926 33.3671875 4.72644043 C36.64161197 1.44882493 38.70853098 -0.40760225 43.47265625 -0.42382812 C44.63667969 -0.28396484 45.80070312 -0.14410156 47 0 C45.41568547 3.90851199 42.73364905 6.52367356 39.7734375 9.421875 C39.26575836 9.92672424 38.75807922 10.43157349 38.23501587 10.95172119 C36.61966158 12.55592096 34.99747791 14.15300856 33.375 15.75 C32.27558302 16.83938107 31.17661941 17.9292199 30.078125 19.01953125 C27.3906398 21.68501885 24.69700979 24.34415143 22 27 C25.59412185 31.88318243 29.28568548 36.60005221 33.25 41.1875 C37.17030213 45.77242171 40.98716688 50.42295322 44.6875 55.1875 C45.1215918 55.74010498 45.55568359 56.29270996 46.00292969 56.86206055 C49 60.76008689 49 60.76008689 49 63 C45.94826881 63.41402042 43.95650712 63.64016283 41 63 C38.18391265 60.82303544 36.22337114 58.10459251 34.125 55.25 C32.91711237 53.6936644 31.70877568 52.13767722 30.5 50.58203125 C29.9121875 49.80811035 29.324375 49.03418945 28.71875 48.23681641 C26.27755943 45.05980106 23.71105624 41.99676566 21.125 38.9375 C19.92230469 37.49697266 19.92230469 37.49697266 18.6953125 36.02734375 C18.13585937 35.35832031 17.57640625 34.68929687 17 34 C12.92755277 35.50831379 10.14374769 38.28533204 8 42 C7.50667659 44.87102754 7.25533899 47.20346869 7.25 50.0625 C7.14366799 54.46709886 7.04085922 58.69386466 6 63 C4.02 63 2.04 63 0 63 C0 42.21 0 21.42 0 0 Z " fill="#ffffff" transform="translate(195,321)"/>
<path d="M0 0 C1.6953125 1.2890625 1.6953125 1.2890625 4.1328125 3.7265625 C4.1328125 4.7165625 4.1328125 5.7065625 4.1328125 6.7265625 C1.1328125 8.7265625 1.1328125 8.7265625 -0.80078125 8.5078125 C-3.07186689 7.64917899 -4.90696614 6.56724872 -6.9296875 5.2265625 C-13.04650084 1.18782202 -18.67322799 1.1084016 -25.8671875 1.7265625 C-33.13898749 3.48028385 -37.65080213 7.70478719 -41.8671875 13.7265625 C-45.47856563 19.78435808 -45.68085357 25.85063716 -44.8671875 32.7265625 C-42.70204498 40.11025365 -39.0760874 45.61153342 -32.3671875 49.4765625 C-26.31853082 52.74946577 -20.69682313 53.46652302 -13.8671875 52.7265625 C-9.07887968 51.22230406 -4.67342775 49.03633663 -0.8671875 45.7265625 C0.4528125 46.3865625 1.7728125 47.0465625 3.1328125 47.7265625 C3.1328125 51.7265625 3.1328125 51.7265625 1.62890625 53.359375 C0.94957031 53.85179687 0.27023438 54.34421875 -0.4296875 54.8515625 C-1.09097656 55.34914063 -1.75226563 55.84671875 -2.43359375 56.359375 C-10.5069544 60.89497087 -20.90466873 61.13326934 -29.78125 59.0390625 C-38.74120657 55.71028607 -45.72847957 50.45314045 -49.8671875 41.7265625 C-53.29695098 33.38160982 -53.74933968 21.04317793 -50.3046875 12.6015625 C-45.62862236 4.26312466 -39.2129464 -1.72690775 -30.109375 -4.8828125 C-19.38494071 -6.75118084 -9.07303812 -6.18788792 0 0 Z " fill="#ffffff" transform="translate(162.8671875,325.2734375)"/>
<path d="M0 0 C2.64 0 5.28 0 8 0 C8.28609131 0.73299316 8.57218262 1.46598633 8.86694336 2.22119141 C10.22199211 5.68983487 11.57935956 9.15756634 12.9375 12.625 C13.18343903 13.25348846 13.42937805 13.88197693 13.68276978 14.5295105 C17.46098708 24.17819117 21.32603581 33.78600811 25.35717773 43.33251953 C25.70723877 44.17282715 26.0572998 45.01313477 26.41796875 45.87890625 C26.87852661 46.97054077 26.87852661 46.97054077 27.34838867 48.08422852 C28 50 28 50 28 53 C28.66 53 29.32 53 30 53 C30.12923355 52.27092438 30.2584671 51.54184875 30.39161682 50.79067993 C30.96602361 48.15585118 31.73484912 45.84886802 32.73413086 43.34912109 C33.08797348 42.45824799 33.4418161 41.56737488 33.80638123 40.64950562 C34.18867386 39.70040314 34.57096649 38.75130066 34.96484375 37.7734375 C35.35821426 36.78880524 35.75158478 35.80417297 36.15687561 34.78970337 C36.98782999 32.71280636 37.82092271 30.63676378 38.65600586 28.56152344 C39.93473656 25.38187148 41.20514782 22.19898727 42.47460938 19.015625 C43.28335972 16.99719764 44.09258825 14.97896182 44.90234375 12.9609375 C45.28261215 12.00778656 45.66288055 11.05463562 46.05467224 10.07260132 C46.41166702 9.18803253 46.7686618 8.30346375 47.13647461 7.39208984 C47.44878525 6.61441254 47.76109589 5.83673523 48.08287048 5.03549194 C49 3 49 3 51 0 C54.625 -0.1875 54.625 -0.1875 58 0 C55.77428068 6.94915545 53.17977483 13.67616137 50.40234375 20.421875 C49.96741104 21.48488831 49.53247833 22.54790161 49.08436584 23.64312744 C47.70480964 27.01321205 46.32125346 30.3816369 44.9375 33.75 C44.00428511 36.02723223 43.07133978 38.30457494 42.13867188 40.58203125 C40.08818454 45.58875086 38.03508223 50.59438944 35.979599 55.59906006 C34.97489529 58.06153018 33.98492014 60.52955805 33 63 C30.36 63 27.72 63 25 63 C18.83570719 48.16669764 12.69542553 33.32329511 6.62411499 18.45166016 C6.04136776 17.02554384 5.45740329 15.59992432 4.8722229 14.17480469 C4.05205861 12.17649174 3.23638128 10.1764058 2.421875 8.17578125 C1.95362305 7.03020752 1.48537109 5.88463379 1.00292969 4.7043457 C0 2 0 2 0 0 Z " fill="#ffffff" transform="translate(261,321)"/>
<path d="M0 0 C4.21666329 -0.94901885 4.21666329 -0.94901885 7 0 C9.95736544 3.31327072 11.98334237 7.12618851 14.125 11 C15.31502836 13.06254374 16.50513118 15.12504452 17.6953125 17.1875 C18.25379883 18.17621094 18.81228516 19.16492188 19.38769531 20.18359375 C21.49090049 23.85751484 23.72578835 27.42991681 26 31 C28.82437861 27.58126104 31.29549469 24.09662916 33.63671875 20.33203125 C34.29607422 19.27435547 34.95542969 18.21667969 35.63476562 17.12695312 C36.31216797 16.03318359 36.98957031 14.93941406 37.6875 13.8125 C38.72100586 12.15444336 38.72100586 12.15444336 39.77539062 10.46289062 C43.05141112 5.3245335 43.05141112 5.3245335 46 0 C48.64 0 51.28 0 54 0 C52.70647765 3.45549805 51.20070037 6.5007834 49.2421875 9.625 C48.70239258 10.48907471 48.16259766 11.35314941 47.60644531 12.2434082 C47.03506836 13.1530835 46.46369141 14.06275879 45.875 15 C45.00246582 16.42155396 45.00246582 16.42155396 44.11230469 17.87182617 C39.18978211 25.86375863 39.18978211 25.86375863 36.3984375 29.42578125 C28.92101182 39.4727223 29.78792716 50.95455719 30 63 C27.69 63 25.38 63 23 63 C23.06453369 62.03682861 23.06453369 62.03682861 23.13037109 61.05419922 C24.05745426 43.23711619 20.33890064 32.55293392 9.73681641 18.35888672 C7.34962506 15.11668223 5.21913084 11.74836153 3.125 8.3125 C2.50882812 7.33925781 1.89265625 6.36601562 1.2578125 5.36328125 C0 3 0 3 0 0 Z " fill="#ffffff" transform="translate(338,321)"/>
<path d="M0 0 C0.33 0 0.66 0 1 0 C1.33 10.23 1.66 20.46 2 31 C4.21460938 28.7621875 6.42921875 26.524375 8.7109375 24.21875 C10.85101292 22.06309264 12.99280122 19.90915128 15.13476562 17.75537109 C16.62647797 16.25357961 18.11639328 14.75000097 19.60449219 13.24462891 C21.73947648 11.08548034 23.88076771 8.93276847 26.0234375 6.78125 C26.69120209 6.10316284 27.35896667 5.42507568 28.04696655 4.72644043 C28.6674588 4.10579712 29.28795105 3.48515381 29.92724609 2.84570312 C30.47351654 2.29499146 31.01978699 1.74427979 31.58261108 1.17687988 C33 0 33 0 35 0 C33.44064367 3.74061812 31.12945322 6.11465636 28.2734375 8.95703125 C27.8069278 9.42308273 27.34041809 9.88913422 26.85977173 10.36930847 C25.8719326 11.35413345 24.88167105 12.33653381 23.88916016 13.31665039 C22.39566953 14.79208043 20.9101425 16.2751574 19.42578125 17.75976562 C4.70109943 32.43296686 4.70109943 32.43296686 0 34 C0 22.78 0 11.56 0 0 Z " fill="#ffffff" transform="translate(201,321)"/>
<path d="M0 0 C4.82608972 0.74247534 8.61021756 3.61021756 12 7 C12 7.99 12 8.98 12 10 C9.8125 10.75 9.8125 10.75 7 11 C4.4375 9.1875 4.4375 9.1875 2 7 C0.68861096 6.29114106 -0.63777017 5.60543548 -2 5 C-2 4.34 -2 3.68 -2 3 C-1.34 3 -0.68 3 0 3 C0 2.01 0 1.02 0 0 Z " fill="#ffffff" transform="translate(155,322)"/>
<path d="M0 0 C0.33 0.66 0.66 1.32 1 2 C0.67 2.66 0.34 3.32 0 4 C18.81 4.495 18.81 4.495 38 5 C38 5.33 38 5.66 38 6 C24.8 6 11.6 6 -2 6 C-1 1 -1 1 0 0 Z " fill="#ffffff" transform="translate(289,270)"/>
<path d="M0 0 C0.33 0 0.66 0 1 0 C2.44219467 7.50881792 1.75510682 12.32783595 -2 19 C-2.66 19 -3.32 19 -4 19 C-3.26309887 12.51527007 -1.64681249 6.30760257 0 0 Z " fill="#ffffff" transform="translate(276,280)"/>
<path d="M0 0 C0.66 0 1.32 0 2 0 C1.40380045 4.86896303 0.43023178 9.32790951 -1 14 C-1.66 13.67 -2.32 13.34 -3 13 C-3.66 14.32 -4.32 15.64 -5 17 C-5.66 17 -6.32 17 -7 17 C-5.24009216 11.08030998 -2.60305395 5.58365008 0 0 Z " fill="#ffffff" transform="translate(376,85)"/>
<path d="M0 0 C0.66 0.33 1.32 0.66 2 1 C0.90344712 2.31886772 -0.20253423 3.62990057 -1.3125 4.9375 C-1.92738281 5.66839844 -2.54226562 6.39929688 -3.17578125 7.15234375 C-5 9 -5 9 -8 10 C-6.5682479 4.98886765 -4.01554307 3.05530451 0 0 Z " fill="#ffffff" transform="translate(150,111)"/>
<path d="M0 0 C0.33 0.66 0.66 1.32 1 2 C1.66 2 2.32 2 3 2 C3 1.34 3 0.68 3 0 C3.66 0.33 4.32 0.66 5 1 C3.515 4.465 3.515 4.465 2 8 C0 6 0 6 -0.125 2.875 C-0.08375 1.92625 -0.0425 0.9775 0 0 Z " fill="#ffffff" transform="translate(277,280)"/>
<path d="M0 0 C0.33 0.66 0.66 1.32 1 2 C0.67 2.66 0.34 3.32 0 4 C2.64 4.33 5.28 4.66 8 5 C8 5.33 8 5.66 8 6 C4.7 6 1.4 6 -2 6 C-1.125 1.125 -1.125 1.125 0 0 Z " fill="#ffffff" transform="translate(289,270)"/>
<path d="M0 0 C1 2 1 2 0.3125 4.5625 C-0.120625 5.366875 -0.55375 6.17125 -1 7 C-2.32 7.33 -3.64 7.66 -5 8 C-3.35 5.36 -1.7 2.72 0 0 Z " fill="#ffffff" transform="translate(369,346)"/>
</svg>